<svg width="18" height="18" viewBox="0 0 18 18" fill="none" xmlns="http://www.w3.org/2000/svg">
<path d="M15.335 15.3266H12.67V11.2012C12.67 10.2175 12.65 8.95131 11.28 8.95131C9.891 8.95131 9.679 10.0219 9.679 11.1291V15.3266H7.013V6.84366H9.573V7.99921H9.608C9.966 7.33354 10.836 6.62934 12.136 6.62934C14.836 6.62934 15.336 8.38539 15.336 10.6698V15.3266H15.335ZM4.003 5.68317C3.79956 5.68343 3.59806 5.64403 3.41006 5.56722C3.22207 5.49042 3.05127 5.37773 2.90746 5.2356C2.76365 5.09347 2.64965 4.92471 2.57201 4.73898C2.49437 4.55326 2.4546 4.35423 2.455 4.15329C2.4552 3.85091 2.54618 3.55537 2.71644 3.30406C2.8867 3.05274 3.12859 2.85693 3.41153 2.7414C3.69447 2.62586 4.00574 2.59578 4.30598 2.65496C4.60622 2.71415 4.88196 2.85994 5.09831 3.07389C5.31466 3.28785 5.46191 3.56037 5.52145 3.85698C5.58099 4.15359 5.55013 4.46098 5.43278 4.74027C5.31543 5.01957 5.11687 5.25822 4.86219 5.42605C4.60751 5.59389 4.30817 5.68336 4.002 5.68317H4.003ZM5.339 15.3266H2.666V6.84366H5.34V15.3266H5.339ZM16.67 0.177002H1.329C0.593 0.177002 0 0.749841 0 1.45799V16.6738C0 17.3819 0.594 17.9548 1.328 17.9548H16.666C17.4 17.9548 18 17.3819 18 16.6738V1.45799C18 0.749841 17.4 0.177002 16.666 0.177002H16.669H16.67Z" fill="#8B82A7"/>
</svg>
