<svg width="20" height="17" viewBox="0 0 20 17" fill="none" xmlns="http://www.w3.org/2000/svg">
<path d="M20 2.53504C19.2483 2.85711 18.4534 3.07001 17.64 3.16713C18.4982 2.66079 19.1413 1.86421 19.45 0.925162C18.6436 1.3993 17.7608 1.73336 16.84 1.91282C16.2245 1.25363 15.405 0.814838 14.5098 0.665263C13.6147 0.515688 12.6945 0.663788 11.8938 1.08634C11.093 1.50889 10.4569 2.18198 10.0852 3.00006C9.71355 3.81814 9.62729 4.73492 9.84 5.60664C8.20943 5.52518 6.61444 5.10585 5.15865 4.37589C3.70287 3.64592 2.41885 2.62165 1.39 1.36961C1.02914 1.99199 0.839519 2.69684 0.84 3.41405C0.83872 4.0801 1.00422 4.73614 1.32176 5.32374C1.63929 5.91134 2.09902 6.41228 2.66 6.78194C2.00798 6.76442 1.36989 6.59162 0.8 6.27824V6.32762C0.804887 7.26085 1.13599 8.16376 1.73731 8.88364C2.33864 9.60351 3.17326 10.0962 4.1 10.2782C3.74326 10.3855 3.37287 10.442 3 10.4461C2.74189 10.4432 2.48442 10.42 2.23 10.377C2.49391 11.1798 3.00462 11.8813 3.69107 12.3841C4.37753 12.8868 5.20558 13.1657 6.06 13.1819C4.6172 14.3032 2.83588 14.9151 1 14.9202C0.665735 14.9213 0.331736 14.9015 0 14.8609C1.87443 16.0563 4.05881 16.6908 6.29 16.6881C7.82969 16.7039 9.35714 16.4165 10.7831 15.8428C12.2091 15.269 13.505 14.4203 14.5952 13.3464C15.6854 12.2724 16.548 10.9947 17.1326 9.58777C17.7172 8.18088 18.012 6.67303 18 5.15232C18 4.98442 18 4.80664 18 4.62886C18.7847 4.0509 19.4615 3.34237 20 2.53504Z" fill="#8B82A7"/>
</svg>
