<svg width="20" height="21" viewBox="0 0 20 21" fill="none" xmlns="http://www.w3.org/2000/svg">
<path d="M0.00401338 20.3496L1.35601 15.443C0.465151 13.9347 -0.00289063 12.2193 1.34322e-05 10.4732C1.34322e-05 5.01838 4.47701 0.59668 10 0.59668C15.523 0.59668 20 5.01838 20 10.4732C20 15.9279 15.523 20.3496 10 20.3496C8.23279 20.3525 6.49667 19.8906 4.97001 19.0114L0.00401338 20.3496ZM6.39101 5.83912C6.26188 5.84703 6.13569 5.88063 6.02001 5.93788C5.91153 5.99855 5.81251 6.0744 5.72601 6.16306C5.60601 6.27467 5.53801 6.37146 5.46501 6.46528C5.09542 6.94034 4.89662 7.52347 4.90001 8.12256C4.90201 8.60651 5.03001 9.07761 5.23001 9.5181C5.63901 10.409 6.31201 11.3522 7.20101 12.2262C7.41501 12.4366 7.62401 12.648 7.84901 12.8445C8.9524 13.804 10.2673 14.4959 11.689 14.8652L12.258 14.9512C12.443 14.961 12.628 14.9472 12.814 14.9383C13.1053 14.9235 13.3896 14.8456 13.647 14.7102C13.813 14.6233 13.891 14.5798 14.03 14.4929C14.03 14.4929 14.073 14.4652 14.155 14.404C14.29 14.3052 14.373 14.2351 14.485 14.1196C14.568 14.0346 14.64 13.9349 14.695 13.8213C14.773 13.6603 14.851 13.3531 14.883 13.0973C14.907 12.9018 14.9 12.7951 14.897 12.7289C14.893 12.6233 14.804 12.5136 14.707 12.4672L14.125 12.2094C14.125 12.2094 13.255 11.8351 12.724 11.5961C12.668 11.572 12.608 11.5583 12.547 11.5556C12.4786 11.5487 12.4095 11.5563 12.3443 11.5779C12.2791 11.5996 12.2193 11.6347 12.169 11.6811V11.6791C12.164 11.6791 12.097 11.7354 11.374 12.6006C11.3325 12.6556 11.2754 12.6972 11.2098 12.7201C11.1443 12.743 11.0733 12.7461 11.006 12.7289C10.9409 12.7117 10.877 12.69 10.815 12.6638C10.691 12.6124 10.648 12.5927 10.563 12.5561L10.558 12.5541C9.98592 12.3074 9.45624 11.9742 8.98801 11.5665C8.86201 11.4578 8.74501 11.3393 8.62501 11.2248C8.23159 10.8527 7.88873 10.4317 7.60501 9.97242L7.54601 9.8786C7.50364 9.81555 7.46937 9.74754 7.44401 9.67613C7.40601 9.53094 7.50501 9.4144 7.50501 9.4144C7.50501 9.4144 7.74801 9.15169 7.86101 9.00947C7.9551 8.89126 8.04289 8.7683 8.12401 8.64107C8.24201 8.45342 8.27901 8.26083 8.21701 8.11169C7.93701 7.43614 7.64701 6.76355 7.34901 6.0959C7.29001 5.96356 7.11501 5.86874 6.95601 5.84998C6.90201 5.84405 6.84801 5.83813 6.79401 5.83418C6.65972 5.82759 6.52515 5.82891 6.39101 5.83813V5.83912Z" fill="#8B82A7"/>
</svg>
